<?xml version="1.0" encoding="utf-8"?>
<!-- Generator: Adobe Illustrator 21.0.0, SVG Export Plug-In . SVG Version: 6.00 Build 0)  -->
<svg version="1.1" id="Warstwa_1" xmlns="http://www.w3.org/2000/svg" xmlns:xlink="http://www.w3.org/1999/xlink" x="0px" y="0px"
	 viewBox="0 0 460 120" style="enable-background:new 0 0 460 120;" xml:space="preserve">
<style type="text/css">
	.st0{fill:#3E8BBB;}
	.st1{font-family:'Avenir-Heavy';}
	.st2{font-size:65.3268px;}
</style>
<g>
	<text transform="matrix(1 0 0 1 181.7745 73.6978)" class="st0 st1 st2">TRACKS</text>
	<g>
		<g>
			<path class="st0" d="M137.5,2.1c2.4,2.3,4.7,4.9,6.8,7.5c2.1,2.7,3.9,5.5,5.6,8.4c1.6,2.9,3,6,4.2,9.2c1.1,3.2,2.1,6.4,2.9,9.7
				c1.4,6.6,1.9,13.4,1.3,20.1l-0.1,1.3l-0.2,1.3c-0.1,0.8-0.2,1.7-0.3,2.5c-0.3,1.7-0.5,3.3-1,5c-0.3,1.6-0.9,3.3-1.3,4.9
				c-0.5,1.6-1,3.2-1.7,4.8c-5,12.6-13.8,23.6-24.9,31.2c-2.8,1.9-5.7,3.6-8.8,5.1c-3,1.5-6.2,2.7-9.4,3.8c-3.2,1-6.5,1.8-9.9,2.3
				c-3.3,0.5-6.7,0.8-10.1,0.8c-6.8,0.1-13.5-0.9-20-2.8c-6.5-1.9-12.7-4.8-18.3-8.5C41.1,101.3,32.1,90.4,26.8,78
				c-1.3-3.1-2.3-6.3-3.2-9.6c-0.8-3.3-1.4-6.6-1.7-10c-0.3-3.4-0.4-6.8-0.3-10.1c0.2-3.4,0.5-6.8,1.2-10c0.7-3.3,1.5-6.6,2.7-9.7
				c1.1-3.2,2.5-6.3,4.1-9.3c1.6-3,3.4-5.8,5.4-8.5c2-2.7,4.2-5.3,6.6-7.7C44.4,0.2,49,0.1,51.9,3c2.9,2.8,2.9,7.5,0.1,10.4
				l-0.1,0.1l0.1-0.1c-7.5,7.5-12.7,17.3-14.8,27.7c-0.5,2.6-0.8,5.2-0.9,7.9c-0.1,2.7,0,5.3,0.2,7.9c0.3,2.6,0.8,5.2,1.4,7.8
				c0.7,2.6,1.5,5.1,2.5,7.5c4.1,9.8,11.2,18.3,20,24.1c4.4,2.9,9.3,5.2,14.4,6.6c5.1,1.5,10.4,2.2,15.7,2.2c2.7,0,5.3-0.3,7.9-0.7
				c2.6-0.4,5.2-1,7.7-1.8c2.5-0.8,5-1.8,7.3-2.9c2.4-1.1,4.7-2.5,6.9-4c8.8-6,15.7-14.6,19.6-24.5c0.5-1.2,0.9-2.5,1.4-3.8
				c0.4-1.3,0.8-2.6,1-3.8c0.3-1.3,0.5-2.6,0.8-3.9c0.1-0.7,0.2-1.3,0.3-2l0.1-1l0.1-1c0.4-5.3,0.1-10.7-1-15.8
				c-2.2-10.3-7.6-20-15.3-27.4l-0.1-0.1c-2.9-2.8-3-7.5-0.2-10.4C129.9-0.6,134.5-0.7,137.5,2.1L137.5,2.1z"/>
		</g>
		<g>
			<path class="st0" d="M135.9,10.5L96.7,57.6l-7.6,9.2L83.8,58l-17-28.4c-0.1-0.1-0.1-0.3,0.1-0.3c0.1-0.1,0.2-0.1,0.3,0L96.3,45
				l-12.8,0.4l43.5-43.1c2.4-2.4,6.3-2.3,8.6,0.1C137.7,4.5,137.8,8.1,135.9,10.5z"/>
		</g>
	</g>
</g>
</svg>
